<?xml version="1.0" encoding="utf-8"?>
<!-- Generated by IcoMoon.io -->
<!DOCTYPE svg PUBLIC "-//W3C//DTD SVG 1.1//EN" "http://www.w3.org/Graphics/SVG/1.1/DTD/svg11.dtd">
<svg version="1.1" xmlns="http://www.w3.org/2000/svg" xmlns:xlink="http://www.w3.org/1999/xlink" width="90" height="90" viewBox="0 0 90 90">
<path fill="#27333d" d="M30.938 8.438h-5.625v11.25h5.625v-11.25zM61.875 22.5h-5.625v5.625h5.625v-5.625zM30.938 22.5h-5.625v5.625h5.625v-5.625zM64.513 16.875l0.174 14.063h-11.25v-14.063h-19.688v14.063h-11.25v-14.063h-8.438v67.5h59.063v-67.5h-8.612zM30.938 75.763h-8.438v-8.438h8.438v8.438zM30.938 64.513h-8.438v-8.438h8.438v8.438zM30.938 53.263h-8.438v-8.438h8.438v8.438zM42.188 75.763h-8.438v-8.438h8.438v8.438zM42.188 64.513h-8.438v-8.438h8.438v8.438zM42.188 53.263h-8.438v-8.438h8.438v8.438zM53.438 75.763h-8.438v-8.438h8.438v8.438zM53.438 64.513h-8.438v-8.438h8.438v8.438zM53.438 53.263h-8.438v-8.438h8.438v8.438zM64.688 75.763h-8.438v-8.438h8.438v8.438zM64.688 64.513h-8.438v-8.438h8.438v8.438zM64.688 53.263h-8.438v-8.438h8.438v8.438zM61.875 8.438h-5.625v11.25h5.625v-11.25z"></path>
</svg>
