<?xml version="1.0" encoding="utf-8"?>
<!-- Generator: Adobe Illustrator 15.1.0, SVG Export Plug-In . SVG Version: 6.00 Build 0)  -->
<!DOCTYPE svg PUBLIC "-//W3C//DTD SVG 1.1//EN" "http://www.w3.org/Graphics/SVG/1.1/DTD/svg11.dtd">
<svg version="1.1" xmlns="http://www.w3.org/2000/svg" xmlns:xlink="http://www.w3.org/1999/xlink" x="0px" y="0px" width="100px"
	 height="100px" viewBox="0 0 100 100" enable-background="new 0 0 100 100" xml:space="preserve">
<g id="dollar-grey-dark" display="none">
	<g display="inline">
		<g>
			<path fill-rule="evenodd" clip-rule="evenodd" fill="#262626" d="M98.712,18.965l0.007-0.004
				c-0.018-0.031-0.037-0.057-0.055-0.086c-0.017-0.03-0.029-0.059-0.047-0.089l-0.006,0.003c-2.26-3.752-5.473-4.168-5.473-4.168
				S78.308,9.166,69.452,7.884c-8.855-1.282-14.38,1.292-14.38,1.292L2.966,39.261c0,0-4.923,2.507-2.084,7.423
				C3.72,51.6,13.337,68.258,13.337,68.258h0c1.027,1.779,9.685,16.775,12.353,21.397c2.839,4.916,7.472,1.906,7.472,1.906
				l52.107-30.085c0,0,4.99-3.495,8.309-11.806c3.317-8.31,6.01-23.882,6.01-23.882S100.834,22.798,98.712,18.965z M79.52,40.919
				c-4.772,2.755-10.873,1.12-13.628-3.651c-2.755-4.772-1.12-10.873,3.652-13.628c4.771-2.755,10.873-1.12,13.628,3.652
				C85.927,32.063,84.29,38.164,79.52,40.919z"/>
		</g>
	</g>
</g>
<g id="dollar-white" display="none">
	<g display="inline">
		<g>
			<path fill-rule="evenodd" clip-rule="evenodd" fill="#FFFFFF" d="M98.734,18.965l0.007-0.004
				c-0.018-0.031-0.036-0.057-0.055-0.086c-0.017-0.03-0.029-0.059-0.047-0.089l-0.007,0.003c-2.259-3.752-5.472-4.168-5.472-4.168
				S78.33,9.166,69.475,7.884c-8.855-1.282-14.38,1.292-14.38,1.292L2.988,39.261c0,0-4.923,2.507-2.084,7.423
				C3.742,51.6,13.359,68.258,13.359,68.258h0c1.027,1.779,9.684,16.775,12.352,21.397c2.84,4.916,7.473,1.906,7.473,1.906
				l52.106-30.085c0,0,4.99-3.495,8.309-11.806c3.317-8.31,6.01-23.882,6.01-23.882S100.856,22.798,98.734,18.965z M79.542,40.919
				c-4.772,2.755-10.873,1.12-13.628-3.651c-2.755-4.772-1.12-10.873,3.652-13.628c4.771-2.755,10.873-1.12,13.628,3.652
				C85.949,32.063,84.313,38.164,79.542,40.919z"/>
		</g>
	</g>
</g>
<g id="calendar-grey-dark" display="none">
	<g display="inline">
		<g>
			<path fill-rule="evenodd" clip-rule="evenodd" fill="#262626" d="M53.86,17.684h-8.001v36.481h28.067V46.14H53.86V17.684z
				 M50.008,0C22.389,0,0,22.454,0,50.152c0,27.697,22.389,50.15,50.008,50.15c27.618,0,50.007-22.453,50.007-50.15
				C100.015,22.454,77.626,0,50.008,0z M50.007,92.279C26.807,92.279,8,73.419,8,50.152C8,26.886,26.807,8.025,50.007,8.025
				c23.2,0,42.007,18.861,42.007,42.127C92.014,73.419,73.207,92.279,50.007,92.279z"/>
		</g>
	</g>
</g>
<g id="calendar-white">
	<g>
		<g>
			<path fill-rule="evenodd" clip-rule="evenodd" fill="#FFFFFF" d="M53.713,17.533h-8.001v36.481h28.067v-8.025H53.713V17.533z
				 M49.86-0.151c-27.619,0-50.008,22.454-50.008,50.152c0,27.696,22.389,50.149,50.008,50.149
				c27.618,0,50.007-22.453,50.007-50.149C99.867,22.302,77.479-0.151,49.86-0.151z M49.859,92.128
				c-23.2,0-42.007-18.86-42.007-42.127c0-23.266,18.807-42.127,42.007-42.127s42.007,18.861,42.007,42.127
				C91.866,73.268,73.06,92.128,49.859,92.128z"/>
		</g>
	</g>
</g>
<g id="location-grey-dark" display="none">
	<g display="inline">
		<g>
			<path fill-rule="evenodd" clip-rule="evenodd" fill="#262626" d="M99.956,14.231V0H0v14.231h5.724V85.77H0V100h99.956V85.77
				h-6.379V14.231H99.956z M41.223,45.679H15.865V20.322h25.358V45.679z M83.155,80.102H57.798V20.323h25.357V80.102z"/>
		</g>
	</g>
</g>
<g id="location-white" display="none">
	<g display="inline">
		<g>
			<path fill-rule="evenodd" clip-rule="evenodd" fill="#FFFFFF" d="M99.979,14.231V0H0.022v14.231h5.724V85.77H0.022V100h99.957
				V85.77H93.6V14.231H99.979z M41.245,45.68H15.887V20.322h25.358V45.68z M83.178,80.102H57.82V20.323h25.357V80.102z"/>
		</g>
	</g>
</g>
<g id="ticket-grey-dark" display="none">
	<g display="inline">
		<g>
			<path fill-rule="evenodd" clip-rule="evenodd" fill="#262626" d="M22.354,83.359V46.718v-36.64c0,0,5.302-0.74,7.17-5.062
				l-8.231,2.205c0,0,0.819,2.26-2.571,3.169c-3.39,0.908-3.81-1.459-3.81-1.459l-9.994,2.678C6.63,18.001,0,20.793,0,20.793
				l8.643,32.254l8.642,32.254c0,0,7.139-0.898,8.852,5.494l3.813-1.021C28.714,84.254,22.354,83.359,22.354,83.359z M95.147,17.981
				l-9.993-2.677c0,0-0.42,2.367-3.811,1.458c-3.39-0.909-2.57-3.168-2.57-3.168l-9.993-2.678c-1.713,6.392-8.851,5.495-8.851,5.495
				l-8.643,32.254l-8.643,32.253c0,0,6.631,2.793,4.918,9.186l9.993,2.676c0,0,0.421-2.365,3.811-1.457s2.569,3.168,2.569,3.168
				l9.995,2.678c1.712-6.393,8.851-5.494,8.851-5.494l8.642-32.254l8.643-32.255C100.065,27.165,93.436,24.374,95.147,17.981z
				 M36.016,80.887l9.24-34.482l9.24-34.483c0,0,6.792,0.847,9.095-4.801c-0.271-0.753-0.444-1.603-0.444-2.593H52.8
				c0,0,0.207,2.395-3.303,2.395c-3.509,0-3.303-2.395-3.303-2.395H35.848c0,6.618-7.127,7.598-7.127,7.598v33.392V78.91
				c0,0,7.127,0.98,7.127,7.598h5.431C40.144,82.637,36.016,80.887,36.016,80.887z"/>
		</g>
	</g>
</g>
<g id="ticket-white" display="none">
	<g display="inline">
		<g>
			<path fill-rule="evenodd" clip-rule="evenodd" fill="#FFFFFF" d="M35.983,80.887l9.24-34.482l9.24-34.482
				c0,0,6.792,0.847,9.095-4.802c-0.271-0.753-0.444-1.603-0.444-2.592H52.768c0,0,0.207,2.395-3.303,2.395
				c-3.509,0-3.303-2.395-3.303-2.395H35.815c0,6.618-7.127,7.598-7.127,7.598V78.91c0,0,7.127,0.98,7.127,7.598h5.431
				C40.111,82.637,35.983,80.887,35.983,80.887z M22.321,83.359V10.078c0,0,5.302-0.74,7.17-5.062L21.26,7.221
				c0,0,0.819,2.26-2.571,3.169c-3.39,0.908-3.81-1.459-3.81-1.459l-9.994,2.678c1.712,6.393-4.918,9.184-4.918,9.184L8.61,53.047
				l8.642,32.254c0,0,7.139-0.898,8.852,5.494l3.813-1.021C28.681,84.254,22.321,83.359,22.321,83.359z M95.115,17.981l-9.994-2.677
				c0,0-0.42,2.367-3.811,1.458c-3.389-0.909-2.57-3.168-2.57-3.168l-9.992-2.678c-1.713,6.392-8.852,5.495-8.852,5.495
				l-8.643,32.254l-8.643,32.253c0,0,6.631,2.793,4.918,9.186l9.994,2.676c0,0,0.42-2.365,3.811-1.457
				c3.389,0.908,2.568,3.168,2.568,3.168l9.996,2.678c1.711-6.393,8.85-5.494,8.85-5.494l8.643-32.254l8.643-32.255
				C100.033,27.165,93.402,24.374,95.115,17.981z"/>
		</g>
	</g>
</g>
<g id="link-grey-dark" display="none">
	<path display="inline" fill="#262626" d="M31.634,72.374l-5.563,3.185c-4.82,2.77-11.02,1.112-13.812-3.687
		c-1.347-2.313-1.707-4.995-1.02-7.569c0.687-2.552,2.339-4.7,4.657-6.02l20.477-11.725c4.248-2.432,11.866-5.639,15.242,0.164
		c1.549,2.66,4.957,3.555,7.617,2.006c2.662-1.549,3.561-4.951,2.014-7.612c-5.738-9.848-17.668-11.517-30.408-4.231L10.362,48.598
		c-4.913,2.814-8.425,7.373-9.886,12.826S-0.223,72.57,2.629,77.478c2.934,5.028,7.646,8.409,12.891,9.815
		c5.251,1.407,11.032,0.829,16.086-2.061l5.574-3.185c2.666-1.527,3.593-4.941,2.061-7.603
		C37.714,71.773,34.306,70.847,31.634,72.374z M97.373,23.165c-6.162-10.579-17.777-14.178-27.609-8.551l-6.943,3.97
		c-2.666,1.527-3.594,4.93-2.061,7.612c1.527,2.661,4.93,3.599,7.602,2.062l6.938-3.959c5.092-2.923,9.918,0.142,12.443,4.472
		c1.348,2.312,1.707,4.995,1.02,7.558s-2.346,4.712-4.656,6.031L62.254,54.857c-9.99,5.716-12.711,1.048-13.868-0.938
		c-1.549-2.66-4.957-3.555-7.617-2.018c-2.662,1.549-3.562,4.963-2.013,7.623c2.661,4.56,6.315,7.461,10.649,8.616
		c5.311,1.418,11.631,0.251,18.383-3.609l21.852-12.499c4.906-2.813,8.424-7.361,9.885-12.814
		C100.988,33.766,100.219,28.062,97.373,23.165z"/>
</g>
<g id="link-white" display="none">
	<path display="inline" fill="#FFFFFF" d="M31.634,72.374l-5.563,3.185c-4.82,2.77-11.02,1.111-13.812-3.687
		c-1.347-2.313-1.707-4.995-1.02-7.569c0.687-2.552,2.339-4.7,4.657-6.02l20.477-11.725c4.248-2.432,11.866-5.639,15.242,0.164
		c1.549,2.66,4.957,3.555,7.617,2.006c2.662-1.549,3.561-4.951,2.014-7.612c-5.738-9.848-17.668-11.517-30.408-4.231L10.362,48.598
		c-4.913,2.814-8.425,7.373-9.886,12.826S-0.223,72.57,2.629,77.477c2.934,5.029,7.646,8.41,12.891,9.816
		c5.251,1.406,11.032,0.828,16.086-2.061l5.574-3.186c2.666-1.527,3.593-4.941,2.061-7.602
		C37.714,71.773,34.306,70.847,31.634,72.374z M97.373,23.165c-6.162-10.579-17.777-14.178-27.609-8.551l-6.943,3.97
		c-2.666,1.527-3.594,4.93-2.061,7.612c1.527,2.661,4.93,3.599,7.602,2.062l6.938-3.959c5.092-2.923,9.918,0.142,12.443,4.472
		c1.348,2.312,1.707,4.995,1.02,7.558s-2.346,4.712-4.656,6.031L62.254,54.857c-9.99,5.716-12.711,1.048-13.868-0.938
		c-1.549-2.66-4.957-3.555-7.617-2.018c-2.662,1.549-3.562,4.963-2.013,7.623c2.661,4.56,6.315,7.461,10.649,8.616
		c5.311,1.418,11.631,0.251,18.383-3.609l21.852-12.499c4.906-2.813,8.424-7.361,9.885-12.814
		C100.988,33.766,100.219,28.062,97.373,23.165z"/>
</g>
</svg>
