<?xml version="1.0" encoding="utf-8"?>
<!-- Generated by IcoMoon.io -->
<!DOCTYPE svg PUBLIC "-//W3C//DTD SVG 1.1//EN" "http://www.w3.org/Graphics/SVG/1.1/DTD/svg11.dtd">
<svg version="1.1" xmlns="http://www.w3.org/2000/svg" xmlns:xlink="http://www.w3.org/1999/xlink" width="90" height="90" viewBox="0 0 90 90">
<path fill="#ffffff" d="M0 70.313v-50.625h90v50.625h-90zM5.625 25.138v39.549h78.75v-39.549h-78.75zM59.063 45c0-9.318-6.294-16.875-14.063-16.875h36.563v33.75h-36.563c7.768 0 14.063-7.557 14.063-16.875zM70.313 50.625c2.329 0 4.219-2.52 4.219-5.625s-1.89-5.625-4.219-5.625-4.219 2.52-4.219 5.625 1.89 5.625 4.219 5.625zM50.957 37.907c-0.042 0.155-0.101 0.264-0.174 0.335-0.076 0.070-0.177 0.104-0.307 0.104s-0.332-0.079-0.616-0.242c-0.281-0.166-0.627-0.34-1.035-0.532-0.411-0.191-0.883-0.366-1.423-0.526-0.54-0.157-1.131-0.233-1.775-0.233-0.506 0-0.945 0.059-1.319 0.183-0.374 0.121-0.689 0.293-0.939 0.506-0.253 0.217-0.439 0.478-0.563 0.779-0.121 0.301-0.183 0.624-0.183 0.962 0 0.506 0.138 0.942 0.413 1.311s0.644 0.697 1.108 0.984c0.464 0.29 0.987 0.557 1.575 0.807 0.582 0.253 1.181 0.52 1.792 0.799 0.61 0.284 1.207 0.602 1.792 0.959 0.588 0.357 1.111 0.785 1.567 1.282s0.824 1.083 1.108 1.755c0.281 0.675 0.419 1.465 0.419 2.382 0 1.195-0.219 2.242-0.664 3.144-0.447 0.9-1.049 1.654-1.814 2.256-0.762 0.605-1.651 1.057-2.669 1.361-0.129 0.039-0.27 0.056-0.402 0.087v3.071h-2.765v-2.708c-0.037 0-0.068 0.006-0.101 0.006-0.785 0-1.516-0.062-2.188-0.188-0.675-0.129-1.268-0.284-1.783-0.461-0.517-0.18-0.945-0.368-1.291-0.565s-0.593-0.371-0.745-0.523c-0.152-0.152-0.262-0.371-0.326-0.658-0.065-0.29-0.098-0.7-0.098-1.24 0-0.363 0.011-0.667 0.037-0.914s0.062-0.444 0.115-0.599 0.121-0.262 0.211-0.326c0.087-0.062 0.188-0.096 0.307-0.096 0.163 0 0.394 0.096 0.695 0.29 0.298 0.194 0.683 0.408 1.15 0.641 0.47 0.236 1.027 0.447 1.679 0.644 0.65 0.191 1.403 0.29 2.258 0.29 0.563 0 1.066-0.068 1.51-0.202s0.824-0.323 1.133-0.571 0.546-0.551 0.712-0.914c0.166-0.366 0.248-0.768 0.248-1.218 0-0.515-0.143-0.956-0.422-1.328-0.281-0.368-0.647-0.695-1.1-0.984-0.45-0.287-0.962-0.554-1.536-0.807s-1.164-0.52-1.775-0.799c-0.607-0.281-1.201-0.599-1.775-0.959-0.574-0.357-1.086-0.782-1.536-1.28s-0.818-1.088-1.097-1.766c-0.281-0.678-0.422-1.493-0.422-2.441 0-1.091 0.203-2.047 0.605-2.872 0.405-0.824 0.948-1.51 1.634-2.053s1.493-0.951 2.424-1.221c0.478-0.141 0.973-0.239 1.479-0.307v-2.908h2.765v2.908c0.11 0.014 0.219 0.008 0.329 0.025 0.537 0.082 1.043 0.191 1.51 0.332 0.47 0.138 0.883 0.292 1.249 0.47 0.363 0.174 0.602 0.318 0.72 0.436 0.118 0.115 0.194 0.214 0.239 0.295 0.039 0.082 0.073 0.191 0.104 0.326 0.028 0.135 0.051 0.304 0.059 0.512 0.011 0.202 0.017 0.458 0.017 0.762 0 0.34-0.008 0.63-0.025 0.866-0.025 0.222-0.053 0.419-0.096 0.571zM30.938 45c0 9.318 6.294 16.875 14.063 16.875h-36.563v-33.75h36.563c-7.768 0-14.063 7.557-14.063 16.875zM19.688 39.375c-2.332 0-4.219 2.52-4.219 5.625s1.887 5.625 4.219 5.625c2.329 0 4.219-2.52 4.219-5.625s-1.89-5.625-4.219-5.625z"></path>
</svg>
