<?xml version="1.0" encoding="utf-8"?>
<!-- Generated by IcoMoon.io -->
<!DOCTYPE svg PUBLIC "-//W3C//DTD SVG 1.1//EN" "http://www.w3.org/Graphics/SVG/1.1/DTD/svg11.dtd">
<svg version="1.1" xmlns="http://www.w3.org/2000/svg" xmlns:xlink="http://www.w3.org/1999/xlink" width="90" height="90" viewBox="0 0 90 90">
<path fill="#ffffff" d="M45 1.8c-23.859 0-43.2 19.341-43.2 43.2s19.341 43.2 43.2 43.2 43.2-19.341 43.2-43.2-19.341-43.2-43.2-43.2zM42.511 63.544c-2.714 1.319-5.634 1.458-6.764 1.458-0.216 0-0.337 0-0.337 0s-0.104 0-0.243 0c-1.764 0-10.544-0.405-10.544-8.401 0-7.857 9.563-8.474 12.492-8.474h0.076c-1.692-2.259-1.341-4.536-1.341-4.536-0.149 0.009-0.364 0.018-0.63 0.018-1.102 0-3.231-0.176-5.058-1.354-2.241-1.44-3.375-3.892-3.375-7.286 0-9.589 10.471-9.976 10.575-9.986h10.458v0.229c0 1.17-2.101 1.399-3.533 1.593-0.486 0.072-1.462 0.166-1.737 0.306 2.651 1.418 3.078 3.641 3.078 6.952 0 3.771-1.476 5.764-3.042 7.164-0.972 0.869-1.733 1.548-1.733 2.461 0 0.896 1.044 1.809 2.259 2.876 1.984 1.751 4.707 4.131 4.707 8.149 0 4.154-1.786 7.124-5.31 8.829zM65.25 45h-6.75v6.75h-4.5v-6.75h-6.75v-4.5h6.75v-6.75h4.5v6.75h6.75v4.5zM37.004 50.175c-0.234 0-0.468 0.009-0.706 0.027-1.998 0.149-3.843 0.896-5.175 2.111-1.323 1.197-1.998 2.709-1.904 4.234 0.202 3.199 3.636 5.071 7.808 4.774 4.104-0.297 6.84-2.664 6.642-5.864-0.189-3.006-2.804-5.283-6.664-5.283zM40.936 32.782c-1.089-3.825-2.844-4.959-5.571-4.959-0.292 0-0.589 0.045-0.873 0.121-1.184 0.337-2.124 1.323-2.646 2.79-0.536 1.485-0.567 3.033-0.108 4.797 0.832 3.154 3.074 5.441 5.332 5.441 0.297 0 0.594-0.036 0.873-0.121 2.471-0.693 4.019-4.464 2.992-8.069z"></path>
</svg>
