<?xml version="1.0" encoding="utf-8"?>
<!-- Generated by IcoMoon.io -->
<!DOCTYPE svg PUBLIC "-//W3C//DTD SVG 1.1//EN" "http://www.w3.org/Graphics/SVG/1.1/DTD/svg11.dtd">
<svg version="1.1" xmlns="http://www.w3.org/2000/svg" xmlns:xlink="http://www.w3.org/1999/xlink" width="90" height="90" viewBox="0 0 90 90">
<path fill="#27333d" d="M58.5 45c0 7.456-6.044 13.5-13.5 13.5s-13.5-6.044-13.5-13.5c0-0.769 0.081-1.521 0.221-2.25h-4.721v17.986c0 1.251 1.012 2.264 2.264 2.264h31.477c1.246 0 2.259-1.012 2.259-2.264v-17.986h-4.721c0.139 0.729 0.221 1.481 0.221 2.25zM45 54c4.968 0 9-4.032 9-9s-4.032-9-9-9-9 4.032-9 9 4.032 9 9 9zM55.8 35.55h5.396c0.747 0 1.354-0.608 1.354-1.35v-5.396c0-0.747-0.608-1.354-1.354-1.354h-5.396c-0.747 0-1.354 0.607-1.354 1.354v5.396c0.004 0.742 0.612 1.35 1.354 1.35zM45 1.8c-23.859 0-43.2 19.341-43.2 43.2s19.341 43.2 43.2 43.2c23.859 0 43.2-19.341 43.2-43.2s-19.341-43.2-43.2-43.2zM67.5 62.501c0 2.749-2.25 4.999-4.999 4.999h-35.001c-2.749 0-4.999-2.25-4.999-4.999v-35.001c0-2.749 2.25-4.999 4.999-4.999h35.001c2.749 0 4.999 2.25 4.999 4.999v35.001z"></path>
</svg>
