<?xml version="1.0" encoding="utf-8"?>
<!-- Generated by IcoMoon.io -->
<!DOCTYPE svg PUBLIC "-//W3C//DTD SVG 1.1//EN" "http://www.w3.org/Graphics/SVG/1.1/DTD/svg11.dtd">
<svg version="1.1" xmlns="http://www.w3.org/2000/svg" xmlns:xlink="http://www.w3.org/1999/xlink" width="90" height="90" viewBox="0 0 90 90">
<path fill="#ffffff" d="M45 1.8c-23.859 0-43.2 19.341-43.2 43.2s19.341 43.2 43.2 43.2 43.2-19.341 43.2-43.2-19.341-43.2-43.2-43.2zM56.898 57.735c-9.009 0-12.136-4.095-13.797-9.194l-1.669-5.247c-1.246-3.829-2.254-6.601-6.836-6.601-3.177 0-7.317 2.084-7.317 8.541 0 5.036 3.465 8.19 7.056 8.19 3.046 0 4.878-1.714 5.832-2.574l1.593 4.554c-1.084 0.783-3.303 2.326-7.681 2.326-6.057 0-11.813-4.306-11.813-12.285 0-8.298 5.999-13.185 12.172-13.185 6.93 0 9.509 2.52 11.7 9.351l1.719 5.247c1.251 3.834 3.892 6.619 9.153 6.619 3.541 0 5.418-0.792 5.418-2.731 0-1.521-0.886-2.628-3.541-3.254l-3.541-0.846c-4.324-1.044-6.044-3.303-6.044-6.881 0-5.719 4.581-7.506 9.274-7.506 5.314 0 8.541 1.944 8.955 6.669l-5.206 0.626c-0.207-2.25-1.561-3.199-4.064-3.199-2.291 0-3.694 1.053-3.694 2.839 0 1.575 0.675 2.516 2.97 3.042l3.33 0.738c4.477 1.049 6.876 3.254 6.876 7.506-0.004 5.261-4.383 7.254-10.845 7.254z"></path>
</svg>
