<?xml version="1.0" encoding="utf-8"?>
<!-- Generated by IcoMoon.io -->
<!DOCTYPE svg PUBLIC "-//W3C//DTD SVG 1.1//EN" "http://www.w3.org/Graphics/SVG/1.1/DTD/svg11.dtd">
<svg version="1.1" xmlns="http://www.w3.org/2000/svg" xmlns:xlink="http://www.w3.org/1999/xlink" width="90" height="90" viewBox="0 0 90 90">
<path fill="#ffffff" d="M45 1.8c-23.859 0-43.2 19.341-43.2 43.2s19.341 43.2 43.2 43.2 43.2-19.341 43.2-43.2-19.341-43.2-43.2-43.2zM34.425 62.906h-8.748v-28.152h8.748v28.152zM29.997 31.297c-2.763 0-4.549-1.957-4.549-4.379 0-2.471 1.841-4.369 4.662-4.369s4.549 1.899 4.604 4.369c0 2.421-1.782 4.379-4.716 4.379zM66.375 62.906h-8.748v-15.601c0-3.631-1.269-6.098-4.433-6.098-2.416 0-3.852 1.669-4.486 3.276-0.234 0.571-0.292 1.381-0.292 2.187v16.231h-8.752v-19.17c0-3.514-0.112-6.453-0.229-8.982h7.601l0.401 3.911h0.176c1.152-1.836 3.974-4.545 8.694-4.545 5.756 0 10.071 3.856 10.071 12.146v16.646z"></path>
</svg>
