<?xml version="1.0" encoding="utf-8"?>
<!-- Generated by IcoMoon.io -->
<!DOCTYPE svg PUBLIC "-//W3C//DTD SVG 1.1//EN" "http://www.w3.org/Graphics/SVG/1.1/DTD/svg11.dtd">
<svg version="1.1" xmlns="http://www.w3.org/2000/svg" xmlns:xlink="http://www.w3.org/1999/xlink" width="90" height="90" viewBox="0 0 90 90">
<path fill="#27333d" d="M71.241 27.675l-9.844 17.049c-1.555 2.689-4.992 3.611-7.684 2.056l-2.433-1.406 2.813-4.868c1.344 0.773 3.066 0.315 3.839-1.029l7.031-12.178c0.776-1.347 0.315-3.066-1.027-3.842l-9.745-5.625c-1.347-0.776-3.066-0.315-3.839 1.029l-7.031 12.178c-0.779 1.347-0.318 3.066 1.027 3.842l-2.813 4.868-2.433-1.406c-2.692-1.553-3.614-4.992-2.059-7.681l9.844-17.049c1.555-2.692 4.992-3.611 7.684-2.059l14.611 8.438c2.692 1.552 3.614 4.992 2.059 7.684zM37.969 57.178c-1.347-0.776-1.808-2.498-1.029-3.842l11.25-19.485c0.776-1.347 2.498-1.808 3.842-1.029s1.808 2.498 1.027 3.842l-11.25 19.485c-0.773 1.344-2.492 1.803-3.839 1.029zM35.91 49.497v0c-1.347-0.776-3.066-0.315-3.842 1.027l-7.031 12.178c-0.776 1.347-0.315 3.066 1.029 3.842l9.745 5.625c1.344 0.776 3.066 0.315 3.839-1.029l7.031-12.178c0.776-1.344 0.315-3.066-1.027-3.842v0l2.813-4.868 2.433 1.406c2.692 1.553 3.614 4.989 2.059 7.681l-9.844 17.049c-1.555 2.692-4.992 3.611-7.684 2.059l-14.614-8.438c-2.692-1.555-3.614-4.992-2.059-7.684l9.844-17.049c1.555-2.692 4.995-3.614 7.687-2.059l2.433 1.406-2.813 4.874z"></path>
</svg>
