<?xml version="1.0" encoding="utf-8"?>
<!-- Generated by IcoMoon.io -->
<!DOCTYPE svg PUBLIC "-//W3C//DTD SVG 1.1//EN" "http://www.w3.org/Graphics/SVG/1.1/DTD/svg11.dtd">
<svg version="1.1" xmlns="http://www.w3.org/2000/svg" xmlns:xlink="http://www.w3.org/1999/xlink" width="90" height="90" viewBox="0 0 90 90">
<path fill="#27333d" d="M73.108 45.405l-34.383-34.383-33.1 0.127 0.051 30.462 35.612 35.612c2.233 2.236 5.827 2.267 8.027 0.067l23.861-23.864c2.197-2.197 2.168-5.788-0.067-8.021zM19.915 30.802c-3.105 0-5.625-2.52-5.625-5.625s2.52-5.625 5.625-5.625c3.108 0 5.625 2.52 5.625 5.625s-2.517 5.625-5.625 5.625zM81.129 45.472l-34.383-34.383-4.137 0.014 34.509 34.332c2.236 2.236 2.264 5.825 0.065 8.024l-23.861 23.864c-0.582 0.582-1.268 0.996-1.994 1.268 2.028 0.779 4.39 0.38 6.005-1.232l23.867-23.864c2.197-2.199 2.166-5.791-0.070-8.024z"></path>
</svg>
