<?xml version="1.0" encoding="utf-8"?>
<!-- Generated by IcoMoon.io -->
<!DOCTYPE svg PUBLIC "-//W3C//DTD SVG 1.1//EN" "http://www.w3.org/Graphics/SVG/1.1/DTD/svg11.dtd">
<svg version="1.1" xmlns="http://www.w3.org/2000/svg" xmlns:xlink="http://www.w3.org/1999/xlink" width="113" height="90" viewBox="0 0 113 90">
<path fill="#ffffff" d="M111.094 64.688h1.406v2.813c-0.841 0-1.766 0-2.813 0-3.105 0-5.625 2.52-5.625 5.625 0 1.029 0 1.983 0 2.813h-95.625c0-0.83 0-1.783 0-2.813 0-3.105-2.52-5.625-5.625-5.625-0.897 0-1.873 0-2.813 0v-2.813h1.406c0.776 0 1.406-0.63 1.406-1.406s-0.63-1.406-1.406-1.406h-1.406v-2.813h1.406c0.776 0 1.406-0.63 1.406-1.406s-0.63-1.406-1.406-1.406h-1.406v-2.813h1.406c0.776 0 1.406-0.63 1.406-1.406s-0.63-1.406-1.406-1.406h-1.406v-2.813h1.406c0.776 0 1.406-0.63 1.406-1.406s-0.63-1.406-1.406-1.406h-1.406v-2.813h1.406c0.776 0 1.406-0.63 1.406-1.406s-0.63-1.406-1.406-1.406h-1.406v-2.813h1.406c0.776 0 1.406-0.63 1.406-1.406s-0.63-1.406-1.406-1.406h-1.406v-2.813h1.406c0.776 0 1.406-0.63 1.406-1.406s-0.63-1.406-1.406-1.406h-1.406v-2.813c0.841 0 1.766 0 2.813 0 3.105 0 5.625-2.52 5.625-5.625 0-1.029 0-1.983 0-2.813h95.625c0 0.83 0 1.783 0 2.813 0 3.105 2.52 5.625 5.625 5.625 1.046 0 1.972 0 2.813 0v2.813h-1.406c-0.776 0-1.406 0.63-1.406 1.406s0.63 1.406 1.406 1.406h1.406v2.813h-1.406c-0.776 0-1.406 0.63-1.406 1.406s0.63 1.406 1.406 1.406h1.406v2.813h-1.406c-0.776 0-1.406 0.63-1.406 1.406s0.63 1.406 1.406 1.406h1.406v2.813h-1.406c-0.776 0-1.406 0.63-1.406 1.406s0.63 1.406 1.406 1.406h1.406v2.813h-1.406c-0.776 0-1.406 0.63-1.406 1.406s0.63 1.406 1.406 1.406h1.406v2.813h-1.406c-0.776 0-1.406 0.63-1.406 1.406s0.63 1.406 1.406 1.406h1.406v2.813h-1.406c-0.776 0-1.406 0.63-1.406 1.406s0.63 1.406 1.406 1.406zM101.25 30.938c0-3.105-2.52-5.625-5.625-5.625h-78.75c-3.105 0-5.625 2.52-5.625 5.625v30.938c0 3.105 2.52 5.625 5.625 5.625h78.75c3.105 0 5.625-2.52 5.625-5.625v-30.938zM95.625 64.688h-78.75c-1.555 0-2.813-1.26-2.813-2.813v-30.938c0-1.555 1.257-2.813 2.813-2.813h78.75c1.552 0 2.813 1.257 2.813 2.813v30.938c0 1.553-1.26 2.813-2.813 2.813zM32.026 39.341h-11.174v1.659h4.646v12.437h1.867v-12.437h4.657v-1.659zM35.91 39.341h-1.867v14.096h1.867v-14.096zM41.51 43.566c0.293-0.877 0.807-1.575 1.536-2.092 0.726-0.52 1.631-0.779 2.714-0.779 0.942 0 1.724 0.233 2.346 0.703 0.624 0.467 1.097 1.215 1.423 2.242l1.834-0.433c-0.377-1.299-1.046-2.309-2.008-3.026s-2.149-1.077-3.558-1.077c-1.243 0-2.382 0.284-3.417 0.852-1.035 0.565-1.831 1.398-2.396 2.492-0.56 1.094-0.841 2.374-0.841 3.839 0 1.347 0.25 2.607 0.748 3.78 0.495 1.176 1.221 2.070 2.168 2.689 0.953 0.619 2.188 0.928 3.707 0.928 1.465 0 2.708-0.402 3.724-1.207s1.718-1.972 2.109-3.504l-1.868-0.472c-0.256 1.187-0.748 2.081-1.468 2.686-0.726 0.602-1.606 0.903-2.652 0.903-0.858 0-1.657-0.222-2.393-0.664s-1.28-1.111-1.628-2.005-0.526-1.941-0.526-3.142c0.006-0.934 0.152-1.837 0.447-2.711zM65.708 39.341h-2.526l-6.997 6.975v-6.975h-1.868v14.096h1.868v-4.888l2.312-2.236 5.015 7.124h2.461l-6.173-8.381 5.909-5.715zM78.576 51.778h-8.646v-4.801h7.791v-1.659h-7.791v-4.317h8.317v-1.659h-10.184v14.096h10.513v-1.659zM91.758 39.341h-11.174v1.659h4.646v12.437h1.868v-12.437h4.657v-1.659z"></path>
</svg>
