<?xml version="1.0" encoding="utf-8"?>
<!-- Generated by IcoMoon.io -->
<!DOCTYPE svg PUBLIC "-//W3C//DTD SVG 1.1//EN" "http://www.w3.org/Graphics/SVG/1.1/DTD/svg11.dtd">
<svg version="1.1" xmlns="http://www.w3.org/2000/svg" xmlns:xlink="http://www.w3.org/1999/xlink" width="90" height="90" viewBox="0 0 90 90">
<path fill="#ffffff" d="M45 1.8c-23.859 0-43.2 19.341-43.2 43.2s19.341 43.2 43.2 43.2 43.2-19.341 43.2-43.2-19.341-43.2-43.2-43.2zM62.573 37.188c0.018 0.369 0.022 0.738 0.022 1.098 0 11.25-8.554 24.214-24.206 24.214-4.806 0-9.279-1.404-13.041-3.825 0.661 0.081 1.341 0.112 2.029 0.112 3.987 0 7.654-1.354 10.566-3.641-3.721-0.072-6.863-2.529-7.947-5.904 0.517 0.094 1.049 0.149 1.598 0.149 0.774 0 1.53-0.104 2.241-0.297-3.893-0.783-6.826-4.221-6.826-8.343v-0.104c1.148 0.634 2.461 1.021 3.856 1.066-2.286-1.53-3.784-4.131-3.784-7.087 0-1.557 0.419-3.024 1.152-4.279 4.199 5.148 10.463 8.532 17.536 8.896-0.149-0.626-0.221-1.274-0.221-1.944 0-4.694 3.807-8.509 8.509-8.509 2.444 0 4.657 1.035 6.21 2.691 1.939-0.387 3.757-1.089 5.4-2.066-0.634 1.984-1.98 3.654-3.739 4.711 1.724-0.211 3.361-0.666 4.887-1.346-1.139 1.706-2.583 3.209-4.244 4.406z"></path>
</svg>
