<?xml version="1.0" encoding="utf-8"?>
<!-- Generated by IcoMoon.io -->
<!DOCTYPE svg PUBLIC "-//W3C//DTD SVG 1.1//EN" "http://www.w3.org/Graphics/SVG/1.1/DTD/svg11.dtd">
<svg version="1.1" xmlns="http://www.w3.org/2000/svg" xmlns:xlink="http://www.w3.org/1999/xlink" width="90" height="90" viewBox="0 0 90 90">
<path fill="#ffffff" d="M45 1.8c-23.859 0-43.2 19.341-43.2 43.2s19.341 43.2 43.2 43.2 43.2-19.341 43.2-43.2-19.341-43.2-43.2-43.2zM64.804 36.675c-2.286 13.122-15.066 24.241-18.904 26.779-3.843 2.529-7.353-1.021-8.622-3.708-1.458-3.069-5.819-19.679-6.961-21.060-1.143-1.377-4.572 1.381-4.572 1.381l-1.661-2.223c0 0 6.961-8.474 12.258-9.526 5.616-1.125 5.607 8.779 6.957 14.283 1.309 5.324 2.187 8.366 3.326 8.366 1.143 0 3.326-2.961 5.711-7.515 2.394-4.554-0.099-8.577-4.774-5.715 1.868-11.43 19.53-14.184 17.244-1.062z"></path>
</svg>
