<?xml version="1.0" encoding="utf-8"?>
<!-- Generated by IcoMoon.io -->
<!DOCTYPE svg PUBLIC "-//W3C//DTD SVG 1.1//EN" "http://www.w3.org/Graphics/SVG/1.1/DTD/svg11.dtd">
<svg version="1.1" xmlns="http://www.w3.org/2000/svg" xmlns:xlink="http://www.w3.org/1999/xlink" width="90" height="90" viewBox="0 0 90 90">
<path fill="#ffffff" d="M52.214 44.249l-10.107-4.716c-0.882-0.409-1.606 0.049-1.606 1.026v8.883c0 0.976 0.724 1.436 1.606 1.026l10.102-4.716c0.886-0.414 0.886-1.089 0.004-1.503zM45 1.8c-23.859 0-43.2 19.341-43.2 43.2s19.341 43.2 43.2 43.2 43.2-19.341 43.2-43.2-19.341-43.2-43.2-43.2zM45 62.55c-22.113 0-22.5-1.994-22.5-17.55s0.387-17.55 22.5-17.55 22.5 1.994 22.5 17.55-0.387 17.55-22.5 17.55z"></path>
</svg>
